<svg id="Layer_1" data-name="Layer 1" xmlns="http://www.w3.org/2000/svg" viewBox="0 0 363.08 224.62"><defs><style>.cls-1{fill:#fff;}</style></defs><title>hand</title><path class="cls-1" d="M315.5,26.47c-33.4,6.79-57.19,27-93.29,35.67s-96.5-13.07-96.5-13.07,44.68,4.58,67.9-7.08c28-9.35,25.06-38.39,25.06-38.39S182,32.15,131,19.13c-70.3-18-88.92-1.75-111.25,32.37C8,69.4,5.06,93.79,6.57,120.69q.21,3.78.53,7.62a447.5,447.5,0,0,0,6.8,46.44,228.56,228.56,0,0,0,25.35,20.46c2.19,1.49,2.54.8,4.79,2.18-1.76,0,1.31,1.7,1.53,2.38,14.31,8.69,21.36,13.73,34.66,17.68,2.68,1.51,5.64,3,8.82,4.52-3-7.51-5.76-14.84-8.37-21.89-.12-.33-.24-.66-.37-1-.48-1.32-1-2.62-1.43-3.92-1-2.84-2-5.63-3-8.36-.3-.87-.61-1.74-.9-2.59-.61-1.76-1.19-3.48-1.76-5.18-.25-.73-.5-1.46-.74-2.18-23-69.47,38.35-70.23,85.76-64.31s72.11-8.44,118.83-35.23c39.63-22.73,83.28-32.59,83.28-32.59S348.9,19.69,315.5,26.47Z"/></svg>