<svg id="Layer_1" data-name="Layer 1" xmlns="http://www.w3.org/2000/svg" xmlns:xlink="http://www.w3.org/1999/xlink" viewBox="0 0 542 542"><defs><style>.cls-1{fill:none;}.cls-2{fill:url(#linear-gradient);}.cls-3{fill:url(#linear-gradient-2);}.cls-4{fill:url(#linear-gradient-3);}.cls-5{fill:url(#linear-gradient-4);}.cls-6{fill:url(#linear-gradient-5);}.cls-7{fill:url(#linear-gradient-6);}.cls-8{fill:url(#linear-gradient-7);}.cls-9{fill:url(#linear-gradient-8);}.cls-10{fill:url(#linear-gradient-9);}.cls-11{fill:#fff;}.cls-12{clip-path:url(#clip-path);}.cls-13{fill:url(#linear-gradient-10);}</style><linearGradient id="linear-gradient" x1="-432.09" y1="3777.24" x2="-431.09" y2="3777.24" gradientTransform="matrix(321.27, 297.5, 297.5, -321.27, -984931.26, 1342362.14)" gradientUnits="userSpaceOnUse"><stop offset="0" stop-color="#ec0c6e"/><stop offset="1" stop-color="#9a2779"/></linearGradient><linearGradient id="linear-gradient-2" x1="-432.09" y1="3777.21" x2="-431.09" y2="3777.21" xlink:href="#linear-gradient"/><linearGradient id="linear-gradient-3" x1="-432.09" y1="3777.39" x2="-431.09" y2="3777.39" xlink:href="#linear-gradient"/><linearGradient id="linear-gradient-4" x1="-432.09" y1="3778.17" x2="-431.09" y2="3778.17" xlink:href="#linear-gradient"/><linearGradient id="linear-gradient-5" x1="-432.09" y1="3777.69" x2="-431.09" y2="3777.69" xlink:href="#linear-gradient"/><linearGradient id="linear-gradient-6" x1="-432.09" y1="3777.88" x2="-431.09" y2="3777.88" xlink:href="#linear-gradient"/><linearGradient id="linear-gradient-7" x1="-432.09" y1="3778.32" x2="-431.09" y2="3778.32" xlink:href="#linear-gradient"/><linearGradient id="linear-gradient-8" x1="-432.09" y1="3777.39" x2="-431.09" y2="3777.39" xlink:href="#linear-gradient"/><linearGradient id="linear-gradient-9" x1="-432.09" y1="3777.73" x2="-431.09" y2="3777.73" xlink:href="#linear-gradient"/><clipPath id="clip-path"><path class="cls-1" d="M-519.44,453.08a53.49,53.49,0,0,0,9.62,7.35c2.88,1.87,5.56,3.09,7.79,4.4,9.4,5.56,17.53,11.31,26.15,15.37a122,122,0,0,0,12.93,5l6.47,2c2.18.62,4.4,1.15,6.63,1.74,8.94,2.34,18.5,4.23,29.88,6.55-2.61-1.45-7.57-2.63-13.65-3.75l-9.63-2.29a99.6,99.6,0,0,1-10-3.28,6.79,6.79,0,0,1-2.66-.23,12.33,12.33,0,0,0-2.08-.31c-3-1.07-.61-1.4-2.79-2.36a115.69,115.69,0,0,1-14.48-5.4c-2.42-1.06-4.78-2.32-7.19-3.51l-3.6-1.84-3.52-2c-9.5-5.24-18.42-11.53-27.16-17.17.06.62-.65.24-1.36-.15a3.32,3.32,0,0,0-1.14-.48c-.15,0-.24.09-.22.32m321.13,2.2c-1-.38-5.19,4.33-4.3,4.73,5.07-4.63,8.6-8.4,7-9.24-4.11,3.37-.81,2.43-2.71,4.51M-605.88,247.85a40.73,40.73,0,0,0,.84,9.6,35.5,35.5,0,0,1-.05,10c.73.18.9-1.79,1.45-2.27a51.42,51.42,0,0,0-.4-8.56,30.42,30.42,0,0,1-.1-8.61c-.39-.58-.59-.86-.82-.86s-.47.24-.92.7m427.3-151.37a78.84,78.84,0,0,0,6.39,7.07,95.06,95.06,0,0,0-13.94-15.28c2.28,2.31,5,5.37,7.55,8.21M-342.14,32.89c-.68.82,3.5,1.16,2.1,2-3.43-.68-4.14-.31-4.92.06a4.26,4.26,0,0,1-2.23.44c9.27,2.16,13,.05,16.75-.69-4.08-.74-7.61-1.89-10.87-1.89-.28,0-.55,0-.83,0m-142-2.23a5.19,5.19,0,0,0-2.26-.1,5.86,5.86,0,0,1-2.17,0c-4.4,2-8.61,4.35-12.86,6.61.64.41.24,1.11-1.75,2.26-3.73,1.25-7.68,3.72-11.79,6.19s-8.09,5.39-12.24,7.3A34,34,0,0,1-534.12,59c-.56-.26.8-1.4.35-1.71-4.91,3.89-7,4.79-11.51,8.78,1.32.59-2.07,3.36-5.39,6.61-3.27,3.1-6.73,6.35-6.57,7.47-.2-.65-1-.55-1.92,0-3,3.79-6,5.57-8.07,8.64A30.3,30.3,0,0,1-560.89,84c-1.43,2-4.45,5.14-4.64,6.39a284.24,284.24,0,0,1,33.4-30.15,307.72,307.72,0,0,1,38.53-25c1.22-.14,5.41-2.11,2.85-.15A159.47,159.47,0,0,1-475,28.69c2.52-.92,4.95-1.88,7.28-3a44.74,44.74,0,0,0,6.78-3.57c.7,0,3.95-1.08,7-2s5.78-1.91,5.31-2.31c-10.31,1.8-23.54,6.8-35.59,12.81m89.94-.21c5.17-1.63,14.61-4.09,21.42-2.28a44,44,0,0,1,10.13,0c3.42.24,6.84.63,10.2,1,9.91.62,21.58.64,29.65,4.14,1.79.39,2.2.1,2.6-.2a1.7,1.7,0,0,1,1.23-.39c8.8,1.78,15.28,5.34,18.88,4.21.75,1,6,2.64,10.11,4.06,2.91,1.42.81,2.37,2.46,3.71,10.32,4.22,14.06,4.35,19.78,5.67a43.54,43.54,0,0,0,10.47,6c-.41,1.4,2.28,3.79,7.16,6.79-1.05.29-2.93-.06-4.72-.4-2.32-.44-4.5-.89-4.61,0-5.54-2.21-11.45-5.63-16.44-6.27a25.26,25.26,0,0,0-5.81-3.1,36.75,36.75,0,0,0-5.19-1.29c-1.75-.33-3.56-.69-5.68-1.22a49.5,49.5,0,0,1-7.56-2.39c.8-.69-1.21-1.61-1.66-2.41a8.32,8.32,0,0,0-3.89-.11,9,9,0,0,1-4.48-.25c-3.06-1.37-9.06-3-14.51-4.33-5.51-1-10.46-1.71-11.48-.91a169.84,169.84,0,0,1-21.62-4l.12-1.73c2.74.22,3.37.81,6.94.93-.78-1.07-3-1.17-5.94-1.18A60.6,60.6,0,0,1-367,34.32c-1-.39-1.52-.85-1.13-1.5a49.92,49.92,0,0,1-6,0c-4.44-.11-9.53-.23-12.77,1.43a12.32,12.32,0,0,0-5.47-.7c-2.38.13-5.22.5-8.17.9s-6,1.09-8.91,1.48a75.72,75.72,0,0,1-7.82.79,11.35,11.35,0,0,1,2.92-1.35c1.3-.38,2.87-.72,4.6-1.05,3.47-.67,7.59-1.29,11.55-1.64,7.87-1,15-1.35,14.6-3.51a14.34,14.34,0,0,0-5,.68,10.1,10.1,0,0,1-3.61.69,16.36,16.36,0,0,1-2-.14m20.52-18.4c-2.92,0-6.15,0-9.27.22s-6.12.34-8.6.41a36.68,36.68,0,0,1-5.43,0c-.13.55-.75,1-2.44,1.4-5.45.14-11.15,1.34-14.13.33-1.43.67-.9,1.4-4.86,1.94-2.43-.85-7.51-.39-13.69.9-3.08.7-6.44,1.54-9.92,2.41s-7,2.06-10.46,3c-5.46,1.53-10.35,2.45-13.79,3.56-12.4,4.43-27.47,12.82-41.57,20.62L-513.76,50c-2,1.17-4,2.37-5.94,3.6s-3.8,2.46-5.45,3.71a32.9,32.9,0,0,0-4.09,3.89c-.37-.15-.32-.79-1.56.08-7.65,7.29-15.71,14-23.72,20.85-3.91,3.55-7.84,7.1-11.5,10.91a100.64,100.64,0,0,0-10.09,12.21c-1.36,1.51-1.41.3-3.69,3.68-2.8,3.82-.41,3.52-3,7.41a63.22,63.22,0,0,0-7.77,10.26c-1.24,2-2.47,4-3.68,6s-2.25,4.2-3.36,6.27-2.18,4.09-3.21,6-2,3.86-2.93,5.6-1.92,3.32-2.88,4.72a24.26,24.26,0,0,1-2.71,3.6c-1.3,3.41-1.77,2.87-3,5.74-.93,2.32.59,1.37-1.2,5.09-5.68,11.15-9.42,22.87-12.48,35s-4.91,24.76-6.51,38.23l-1.15-.11c-.68,4.81.83,2.9.55,6.52a225.49,225.49,0,0,0,.59,44.89,268.37,268.37,0,0,0,8.45,43c.72,3.72,1.76,7.91,3,12.37,1.44,4.4,3,9.12,4.87,13.85s3.88,9.57,6.26,14.17c1.14,2.32,2.27,4.64,3.39,6.91s2.39,4.43,3.54,6.59a285.72,285.72,0,0,0,35.46,51.53,244,244,0,0,0,44.48,40.23c2.19,1.48,2.54.79,4.79,2.17-1.75-.05,1.32,1.7,1.54,2.38,14.31,8.69,21.36,13.73,34.65,17.68a178.3,178.3,0,0,0,38.21,15.36,260.84,260.84,0,0,0,43.7,8.23c1.15.1,1.44-.09,1.73-.27s.66-.42,2.24-.22c-.1.39.55.69,1.21,1,4.64.3,10,.4,15.77.72,3.58,0,7.3.14,11.1.14h.42c2.18,0,4.39,0,6.6-.16,6.21-.11,12.44-.75,18.37-1.42,3-.38,5.82-.94,8.56-1.45a73.54,73.54,0,0,0,7.78-1.82c8-.33,19.52-3.65,26.38-6.88a201.9,201.9,0,0,0,19.11-6.83c6-2.69,11.92-5.28,17.68-8.47,5.86-3,11.56-6.51,17.59-10.11l9-5.92c3.13-2,6.16-4.34,9.42-6.6-.83-.93,1.4-2.4,1.66-4.27-6.24,3.35-6.29,5-11.09,8.47-.19-.47-.73-.61-1.71-.32l-8.45,5.15q-4.11,2.38-7.84,4.55c-4.91,3-9.48,5.36-13.21,7.77-5.3,2.37-8.89,3-11.53,5.52a9.94,9.94,0,0,0-1.64.09c-1.16.12-2.36.25-2.54-.32,1.13-1.49,8.31-4.22,8.62-5.67-7.79,3.39-21.4,9-25.3,11.87a5.58,5.58,0,0,1-2-.15,5.23,5.23,0,0,0-2-.14c-1.37.34-3.68,1-6.44,1.83s-5.92,1.94-9.07,2.82c-6.3,1.78-12.34,3.47-13.86,3.55a101.62,101.62,0,0,1-10.32-.6c-6.87-1.14,1.64-3.55,9.37-5.41,0-.72,0-1.4-1.49-1.53-2.24.6-5.34,1.18-8,1.69s-4.87,1-5.31,1.71c-2-.37-4.68-.07-7.8.16s-6.64.74-10.12,1.13c-7,.52-13.82.75-16.79-1.49-7.16.54-14.81-1.28-14.58-3.07-4.5-.9-7.86-1.87-11.46-2.46s-7.38-1.08-12.72-1.48c-2.87-1.45-10.56-3.32-11.36-5-5.12-1-10.12-2.43-13.2-2.5-3.88-1.44-12.09-3.78-19.7-7a86.27,86.27,0,0,1-10.47-5c-3-1.62-5.26-3.27-6.28-4.65,4.06,2.5,4,2,8.62,4.44a30.84,30.84,0,0,1,5,1.07l6,1.53c2,.51,3.95,1,5.6,1.22a8.7,8.7,0,0,0,3.89-.17c-15.53-4.84-27.08-8.56-39.15-17.42-1.24-.77-1.61-.71-2-.64s-.65.11-1.57-.41c-3.57-2.35-5.87-4.43-9.66-7.09-3.11-2.13-6.54-4.74-10.35-7.23s-7.58-5.44-11.38-8.21c-3.63-3-7.23-5.92-10.2-8.92a51.26,51.26,0,0,1-7-8.75c5.7,4.23.06-1.67,1.29-2.87,2.25,2.13,5.87,5.78,9.44,9.33,3.75,3.36,7.56,6.49,10.18,7.44-.15-1.47-2.48-2.4-5.09-4.84-4.23-6.12-12.19-14.09-20.42-23s-16.26-19.16-21.5-28.14c-.47.06-.68.92-1.58-.38a25.89,25.89,0,0,0-2.24-5.33c-.51-1-1.07-2-1.69-3s-1.18-2.19-1.81-3.35c-1.26-2.34-2.7-4.84-4.06-7.61s-2.57-5.81-3.75-9.05c-1.21-1.87-1.7-1.54-2.12-1.2s-.54.44-1,0c-1.36-3.69-3.07-7.27-4.59-11A107.31,107.31,0,0,1-599,340c-1.47,1.21-1.9-5.23-3.26-8.81-.54.22-1.08-.9-1.63-2s-1-2-1.48-2a79.27,79.27,0,0,1-3-15,18.86,18.86,0,0,1,.62-8.53c-1.33-6.29-1.36-5.59-1.44-11.62a33.05,33.05,0,0,1-3.23-6.83,80.65,80.65,0,0,1-.2-8.85,44.7,44.7,0,0,1,.89-6.92c.4-2.08.88-4,1.37-5.79s1.14-3.61,1.73-5.48c1-16-.89-21.5.53-34.16,1.65-2.22,2.21-.48,2.87,1.25.53,1.41,1.12,2.82,2.4,2.11a70,70,0,0,1,2.62-11.22c-.56-.53-.94-1.43-.59-3.71.86.15,1.65-2.26,2.52-4.36s1.84-3.89,2.64-2.6c.56-3.44,1.21-7.42,2.77-6.32l3-8.61c-1.44-.82.82-7.76,3.23-12.23-.43-1.1-1.15-.08-1.88.93-.56.8-1.13,1.6-1.55,1.38.38-3.81.32-6.73,4.26-14.64,2.67-2.26,2.14,1.35,1.43,4.53.55-1.3,1.09-2.51,1.6-3.59s1.09-2,1.59-2.77c1-1.54,1.83-2.44,2.44-2.39.66-1.38,1.29-2.73,1.92-4.05s1.37-2.55,2.05-3.79c1.38-2.47,2.68-4.88,4.09-7.15,2.91-4.47,5.65-8.77,8.8-12.72a217.42,217.42,0,0,1,21.09-23.72c.34-1.78,1.67-4.19,3.92-7.15a84.31,84.31,0,0,1,9.89-10c.73.51,2.81-.73,5.11-2.44s4.87-3.84,6.56-5.16c.15.71.89.69,2.54-.46a30.08,30.08,0,0,1,12.95-7.36,47.19,47.19,0,0,0-5.59,5.86c-3.78,3-6.11,4.3-9.23,6.52a29.83,29.83,0,0,1-5.55,5.69l.93,1.1c-1,1.23-2,2.35-3,3.38s-1.92,2.06-2.87,3a40.17,40.17,0,0,1-5.55,4.39,23.16,23.16,0,0,1-8.59,4.09c-1.08,1.66,1.21,1.19-1.08,3.63-2.78,3.64-5.48,6.53-7.92,9.36s-4.88,5.36-7.27,8.13c-4.72,5.55-9.87,11.61-15.15,21.62.13.8.75,1.1.12,2.67-2,3.24-2.9,4.89-3.83,6.13s-1.75,2.13-3.29,4.1c-2.27,4-1.62,4.9-1.85,6.6-1.55.18-3.73,6.16-5,10.1-1.11,0-2.57,1.85-4.1,5.69,1.28,1.24-.49,7.32-2.54,11.09a55.24,55.24,0,0,1-1.34,10.12c-.6,3.76-1.67,7.75-2.49,11.91s-1.83,8.41-2.35,12.6q-.47,3.13-.83,6.14c-.19,2-.26,3.95-.3,5.81-.9,4.92-1.7,8.66-2.82,11.06.27,2.35.37,5.49.64,9.07s.27,7.57.57,11.62c.08,2,.16,4.07.24,6.08s.23,4,.34,5.88.13,3.72.16,5.43.14,3.27.13,4.68c-.46.55-.81.1-1.16-.34s-.63-.81-1-.49a51.34,51.34,0,0,0,.86,8.84c.58,3,1.3,6.06,2,9.12a108.3,108.3,0,0,1,3.66,18,75.37,75.37,0,0,1,6.12,13.75c.94,2.62,1.93,5.26,2.73,7.85.41,1.29.79,2.56,1.13,3.79s.75,2.39,1.1,3.48c.42-.26,1,.49,1.77,1.7.27,1.22-.82.78.69,3.48,1.11.32,2.58,3.55,4.15,6.78s3.13,6.52,4.46,6.77c6,13.63,14.68,21.37,21.48,29.39.52,1.29,0,1.84,1.09,3.55a25.24,25.24,0,0,1,3.17,3.59c1.37,1.67,2.46,3.24,1.43,3a77.78,77.78,0,0,0,9.17,9.39c2.94,2.53,5.6,4.73,8.31,6.64s5.09,3.9,7.6,5.9a59.17,59.17,0,0,1,7.41,7.08c2.53.58,8.76,6,12.69,7.82a2.8,2.8,0,0,0,1.92.13c.77-.18,1.53-.36,3.95,1.25-.26.79-1.9,1.19.87,2.93a81.63,81.63,0,0,1,8,3.69c2.87,1.47,6,2.9,9.09,4.43s6.28,2.78,9.23,4a46.5,46.5,0,0,0,8.26,2.54c2.71,2.08,2.7,1.16,7.38,2.85A40,40,0,0,0-443,486a49.4,49.4,0,0,0,7.78,1.25c2.5.28,5,.24,7.74.42s5.55.58,8.87,1.1a6.37,6.37,0,0,1-.23-.88,224.43,224.43,0,0,0,148.19-20.49c-.65.48-1.28,1-1.86,1.42a14.15,14.15,0,0,0-3.78,3.58l-11.8,4.84-5.38,2.36-5.21,2.18c-1.71.72-3.37,1.51-5.06,2.17l-5.09,1.94c-1.69.63-3.39,1.29-5.12,1.86s-3.51,1-5.31,1.54c-2.53,0,.35-.94-.42-1.68-10,3.47-24.62,7.34-33.19,5.57-3.45.64-5.45,1.38-8.89,1.8a31.72,31.72,0,0,0-8.33-.62c-3.47,0-6.75.05-8.56-1.09-4.38-.27-10.58-.56-14.54-.86s-5.78.24-1.3,2.22a220.28,220.28,0,0,0,67.2-2.83A185.15,185.15,0,0,0-296.83,483c5.12-1.82,10.13-4.23,15.34-6.58,5.07-2.65,10.34-5.3,15.52-8.59-7.23,3.1-1.25-1-.39-2.67a227,227,0,0,0,22.81-14.25,223.09,223.09,0,0,0,63.67-69.54,64.2,64.2,0,0,1-4.25,8.69,99.33,99.33,0,0,1-5.5,8.72c-2,2.85-4,5.87-6.38,8.83s-4.61,6.27-7.3,9.62c-4.32,3.68-11.18,12.22-14,16.2,1.83-1.52,3.61-3.26,5.43-5.11s3.74-3.73,5.6-5.8l5.57-6.47c1.91-2.2,3.62-4.65,5.47-7a226.92,226.92,0,0,0,19.43-31.3c1.15.81.9,3.25-.24,6.58a41.21,41.21,0,0,1-2.35,5.53c-1,2-2.21,4-3.48,6.11A64.72,64.72,0,0,1-186,402c-1.46,2-2.91,3.84-4.29,5.56a75.55,75.55,0,0,1-7.09,7.25c-3.46,4.22-5.9,7.64-8,10.76s-4.14,5.72-6.57,8.42c5.31-5.48,5.9-2.41,11.28-8.36-.18,2.35-7.16,8.44-8.44,11.27a44.11,44.11,0,0,0-6.13,3.69c-4.86,4.7-6.51,8-11.62,11.5-.23.74,2,.31,0,1.87-1.25.79-2.15,1.15-2.4.72-2.72,2.38-7.16,7.1-4.26,6.09a43,43,0,0,1,7.25-6.34c2.69-2.08,5.38-3.78,7.07-4.16-4.68,5.4-10.31,8.76-13.57,13.56,5.42-3.63,5.06-3.77,9.36-7.43,1.66-.81,4.21-2.82,5.34-2.94-5,5.49-12.3,11.1-13.29,14.38,3.15-2.64,6.68-5.58,10.39-8.67l5.48-4.92c1.86-1.65,3.71-3.34,5.45-5.14,3.54-3.53,7-7,10-10.63,1.5-1.76,3-3.47,4.29-5.14s2.44-3.38,3.5-4.95c.22.2.91-.5,1.23-.52-.18,2-1.68,4.84-2.67,7.37-6.67,6.72-4.73,8.12-8,11,1.2,1.17.13,2.77,3.12,1.44-4.34,4.83-2.1,5.35-2.4,6.57,3.45-3.09-.23-2,4.7-6,1.3-.16-.72,1.79.13,1.93a53.33,53.33,0,0,1,7.44-8.35,97.7,97.7,0,0,0,8.49-9.53c.52-.16.25.54-.07,1.24-.43,1-1,1.94.34.64.4-.72,3.1-5.1,3.82-5-.33,1.31.1,1.24.66,1.16a1.11,1.11,0,0,1,1.14.3c-2,3.82-6.86,9.21-10.85,14-4.17,4.68-7.53,8.78-6.52,10.1,6.22-7,15.41-15.66,23.5-25.68s15.71-20.79,19.58-30.56c3.59-3.35,7.34-10,10.76-16.77l4.67-10.13c1.34-3.23,2.6-6.13,3.76-8.36.42-2.07,1.24-5,2.31-8.38s2.52-7.32,3.76-11.56c.65-2.12,1.32-4.29,2-6.49s1.16-4.48,1.72-6.72,1.1-4.48,1.52-6.68.72-4.36,1-6.42c-.5-.28-.79-1-.66-2.75a15.27,15.27,0,0,0,1.81-7.53c-1.18.58-.88-4.3-1.23-7.94a285.29,285.29,0,0,0-.09-52.27,320.86,320.86,0,0,0-8.86-50.25c-1-2.51-1.94-3.36-3.06-7.07a88.48,88.48,0,0,0-4.07-13.94c-2-5-4-10.2-5.62-13.82-2-.6-5.78-8.39-5.3-10.23-1.48-3.47-3.48-3.54-3.54-5.36.26-.13-.19-1.07-.1-1.4,2.21,2.78,5,7.1,6.94,9.41-5.37-13.12-14-24.52-17.19-30.83.18.44.17.7-.11.71-1.66-2.34-3.13-4.61-4.7-6.64l-4.5-5.87c-2.82-3.81-5.78-7.13-8.68-10.6a270.69,270.69,0,0,0-21.7-22.52c.07,1.66-1.95.77-4.91-1s-6.85-4.51-10.73-6.29c-.55-1.11-2.31-2.79-.9-3-3.2-2.46-4.11-2.12-5.06-1.78a2.72,2.72,0,0,1-1.71.17A58.47,58.47,0,0,1-229,61l-7.53-5.79c0-.32.43-.24.84-.17s.77.14.84-.12c-5.65-4-10.9-6.89-15.64-9.82l-7.06-3.89c-2.28-1.29-4.54-2.53-6.84-3.68a41.67,41.67,0,0,1-8.22-3c-3.63-1.42-7.89-3.29-12.27-5.09-4.43-1.63-8.89-3.46-12.9-4.66a71.91,71.91,0,0,0-9.72-2.44,27.88,27.88,0,0,0-5.82-2.91c.75,1.25-2.43.66-5.36.11s-5.65-.82-3.88.48c3.23-1.45,11.66,3.17,13.17,4.53-10.45-2.74-23.42-4.32-36.23-5.15s-25.5-.69-35.89-1.6c2.41-1.26,11.36-1,15-1.73-2.26-.09-2.94-.35-2.5-.95,3.69.7,7.63-2,2.61-2.81A59.62,59.62,0,0,0-373.73,12.05Z"/></clipPath><linearGradient id="linear-gradient-10" x1="-433.38" y1="3777.04" x2="-432.38" y2="3777.04" gradientTransform="matrix(0, 437.86, 437.86, 0, -1654195.65, 189833.26)" xlink:href="#linear-gradient"/></defs><title>logo</title><path class="cls-1" d="M74.2,384.79c-1.33-.25-2.93-3.52-4.46-6.77s-3-6.46-4.15-6.78c-1.51-2.7-.41-2.26-.69-3.48-.72-1.21-1.35-2-1.77-1.7-.35-1.1-.71-2.27-1.1-3.48s-.72-2.5-1.13-3.79c-.8-2.59-1.79-5.24-2.73-7.86a75.56,75.56,0,0,0-6.12-13.74,108.3,108.3,0,0,0-3.66-18c-.69-3.06-1.41-6.11-2-9.12a51.36,51.36,0,0,1-.86-8.85c.39-.31.71.09,1,.49s.71.9,1.16.35c0-1.41,0-3-.13-4.68s-.07-3.54-.16-5.43-.23-3.88-.34-5.88-.16-4.06-.24-6.08c-.3-4.05-.36-8.05-.57-11.62s-.37-6.72-.64-9.07c1.12-2.4,1.92-6.14,2.82-11.07,0-1.85.11-3.8.3-5.8s.52-4.06.83-6.14c.52-4.19,1.56-8.43,2.35-12.6s1.89-8.15,2.49-11.91a55.24,55.24,0,0,0,1.34-10.12c2-3.77,3.82-9.85,2.54-11.09,1.53-3.84,3-5.7,4.1-5.69,1.26-3.94,3.44-9.92,5-10.1.23-1.7-.42-2.57,1.85-6.6,1.54-2,2.38-2.86,3.29-4.11s1.81-2.88,3.83-6.13c.63-1.56,0-1.86-.12-2.66,5.28-10,10.43-16.07,15.15-21.62,2.39-2.77,4.87-5.28,7.27-8.13s5.14-5.72,7.92-9.36c2.29-2.44,0-2,1.08-3.63a23.21,23.21,0,0,0,8.59-4.1,40,40,0,0,0,5.55-4.38c1-.9,1.9-1.89,2.87-3s2-2.15,3-3.38l-.93-1.1a29.81,29.81,0,0,0,5.55-5.69c3.12-2.22,5.45-3.55,9.23-6.52a46.5,46.5,0,0,1,5.59-5.86,30.08,30.08,0,0,0-12.95,7.36c-1.65,1.15-2.39,1.17-2.54.46l-6.56,5.15c-2.3,1.72-4.38,3-5.11,2.45a85.09,85.09,0,0,0-9.89,10c-2.25,3-3.58,5.37-3.91,7.16a216.52,216.52,0,0,0-21.1,23.72c-3.15,3.95-5.89,8.24-8.8,12.72-1.41,2.27-2.71,4.68-4.09,7.14-.68,1.24-1.39,2.49-2,3.8s-1.26,2.67-1.92,4c-.61,0-1.45.86-2.44,2.4-.5.77-1,1.71-1.59,2.77s-1,2.29-1.6,3.58c.71-3.17,1.24-6.78-1.43-4.52-3.94,7.91-3.88,10.83-4.26,14.64.42.22,1-.58,1.55-1.38.73-1,1.45-2,1.88-.93-2.41,4.47-4.67,11.41-3.23,12.23l-3,8.61c-1.56-1.1-2.21,2.88-2.77,6.32-.8-1.29-1.71.51-2.64,2.6s-1.66,4.51-2.52,4.36c-.35,2.28,0,3.18.59,3.7a70.39,70.39,0,0,0-2.62,11.23c-1.28.7-1.87-.7-2.4-2.11-.66-1.74-1.22-3.47-2.87-1.25-1.42,12.66.45,18.11-.53,34.16-.59,1.87-1.15,3.65-1.73,5.47s-1,3.72-1.37,5.8a44.7,44.7,0,0,0-.89,6.92,80.65,80.65,0,0,0,.2,8.85,32.7,32.7,0,0,0,3.23,6.82c.08,6,.11,5.33,1.44,11.63a18.84,18.84,0,0,0-.62,8.53,77.71,77.71,0,0,0,3,15c.49,0,1,1,1.48,2s1.09,2.24,1.63,2c1.36,3.59,1.79,10,3.26,8.82a109.4,109.4,0,0,0,4.08,11.95c1.52,3.78,3.23,7.36,4.59,11.05.42.43.68.2,1,0s.91-.67,2.12,1.21c1.18,3.23,2.47,6.25,3.75,9.05s2.8,5.27,4.06,7.6c.63,1.17,1.24,2.29,1.81,3.36s1.18,2,1.69,3a26.06,26.06,0,0,1,2.24,5.32c.9,1.31,1.11.45,1.58.39a160.1,160.1,0,0,0,16.88,23q-.33-3.84-.54-7.62C85.37,402.68,78.93,395.58,74.2,384.79ZM43.36,266c-.55.48-.72,2.45-1.45,2.27a35.58,35.58,0,0,0,.05-10,40.63,40.63,0,0,1-.84-9.59c.45-.46.7-.7.91-.7s.44.28.83.85a30.48,30.48,0,0,0,.1,8.62A51.42,51.42,0,0,1,43.36,266Z"/><path class="cls-1" d="M246.47,35.35c3-.41,5.8-.77,8.18-.9a12.32,12.32,0,0,1,5.47.7c3.24-1.66,8.33-1.55,12.77-1.43a47.7,47.7,0,0,0,6-.06c-.39.66.16,1.12,1.13,1.5a59.58,59.58,0,0,0,10.33.18c2.94,0,5.16.12,5.94,1.19-3.57-.12-4.2-.71-6.94-.93l-.12,1.73a169.84,169.84,0,0,0,21.62,4c1-.8,6-.13,11.48.91,5.45,1.3,11.45,3,14.51,4.33a8.89,8.89,0,0,0,4.48.24,8.5,8.5,0,0,1,3.89.12c.45.79,2.46,1.72,1.66,2.41a48.23,48.23,0,0,0,7.56,2.38c2.12.54,3.93.9,5.68,1.23a36.75,36.75,0,0,1,5.19,1.29,25.26,25.26,0,0,1,5.81,3.1c5,.63,10.91,4.06,16.44,6.27.11-.9,2.29-.46,4.61,0,1.79.34,3.67.68,4.72.4-4.88-3-7.57-5.4-7.16-6.79a43.54,43.54,0,0,1-10.47-6c-5.72-1.32-9.46-1.45-19.78-5.67-1.65-1.34.45-2.29-2.46-3.71-4.09-1.42-9.36-3-10.11-4.06-3.6,1.13-10.08-2.43-18.88-4.21a1.7,1.7,0,0,0-1.23.39c-.4.29-.81.59-2.6.2-8.06-3.5-19.74-3.52-29.65-4.15-3.36-.34-6.78-.73-10.2-1a45.13,45.13,0,0,0-10.13,0c-6.81-1.8-16.25.65-21.42,2.29a18.4,18.4,0,0,0,2,.13,10.12,10.12,0,0,0,3.61-.68,14.52,14.52,0,0,1,5-.69c.42,2.17-6.72,2.51-14.6,3.51-4,.36-8.08,1-11.55,1.65-1.73.33-3.3.67-4.6,1.05a11.73,11.73,0,0,0-2.92,1.34,72.79,72.79,0,0,0,7.82-.78C240.46,36.43,243.51,35.7,246.47,35.35Zm55.57.5c.78-.38,1.49-.75,4.92-.06,1.4-.9-2.78-1.23-2.1-2.06l.83,0c3.26,0,6.79,1.15,10.87,1.88-3.74.75-7.48,2.85-16.75.69A4.21,4.21,0,0,0,302,35.85Z"/><path class="cls-2" d="M171.12,481.05a124.14,124.14,0,0,0,12.93,5l6.47,2c2.18.62,4.4,1.15,6.63,1.74,8.94,2.33,18.5,4.23,29.88,6.55-2.61-1.45-7.57-2.63-13.65-3.75l-9.63-2.29a102.22,102.22,0,0,1-10-3.28,7,7,0,0,1-2.66-.23,11.39,11.39,0,0,0-2.08-.31c-3-1.07-.61-1.4-2.79-2.36a115.69,115.69,0,0,1-14.48-5.4c-2.42-1.07-4.78-2.32-7.19-3.51l-3.6-1.84-1.31-.75c.3.85.6,1.72.91,2.59A116.76,116.76,0,0,0,171.12,481.05Z"/><path class="cls-3" d="M171.76,490.9a30.84,30.84,0,0,1,5,1.07l6,1.53c2,.51,4,1,5.6,1.21a8.56,8.56,0,0,0,3.89-.17c-11.07-3.44-20.11-6.33-28.77-10.91.47,1.3,1,2.61,1.44,3.92C167.33,488.89,168,488.93,171.76,490.9Z"/><path class="cls-4" d="M42.86,248.85c-.39-.57-.59-.85-.83-.85s-.46.24-.91.7a40.63,40.63,0,0,0,.84,9.59,35.58,35.58,0,0,1-.05,10c.73.18.9-1.79,1.45-2.27a51.42,51.42,0,0,0-.4-8.56A30.48,30.48,0,0,1,42.86,248.85Z"/><path class="cls-5" d="M316.56,35.59c-4.08-.73-7.61-1.88-10.87-1.88l-.83,0c-.68.83,3.5,1.16,2.1,2.06-3.43-.69-4.14-.32-4.92.06a4.21,4.21,0,0,1-2.23.43C309.08,38.44,312.82,36.34,316.56,35.59Z"/><path class="cls-6" d="M444.39,460.86c5.07-4.63,8.6-8.4,7-9.24-4.11,3.37-.81,2.43-2.71,4.51C447.68,455.74,443.5,460.46,444.39,460.86Z"/><path class="cls-7" d="M156.25,35.9A159.47,159.47,0,0,1,172,29.54c2.52-.92,5-1.88,7.28-3A44.26,44.26,0,0,0,186.1,23c.7,0,4-1.08,7-2s5.78-1.91,5.31-2.31c-10.31,1.8-23.54,6.8-35.59,12.81a5.19,5.19,0,0,0-2.26-.1,6.08,6.08,0,0,1-2.17-.05c-4.4,2-8.61,4.35-12.86,6.61.64.41.24,1.1-1.75,2.26-3.73,1.25-7.68,3.71-11.79,6.19s-8.09,5.39-12.24,7.29a33.65,33.65,0,0,1-6.86,6.18c-.56-.26.8-1.4.35-1.72-4.91,3.9-7,4.8-11.51,8.78,1.32.6-2.07,3.37-5.39,6.62S89.6,79.92,89.76,81c-.2-.65-1-.55-1.92,0-3,3.79-6,5.56-8.07,8.64a30.42,30.42,0,0,1,6.34-4.82c-1.43,2-4.45,5.15-4.64,6.4a282.55,282.55,0,0,1,33.4-30.15,307.72,307.72,0,0,1,38.53-25C154.62,35.91,158.81,33.94,156.25,35.9Z"/><path class="cls-8" d="M468.41,97.32a80.62,80.62,0,0,0,6.4,7.08,95.06,95.06,0,0,0-13.94-15.28C463.15,91.43,465.86,94.49,468.41,97.32Z"/><path class="cls-9" d="M203.1,521.27a260.65,260.65,0,0,0,43.7,8.23c1.15.1,1.44-.09,1.73-.27s.66-.42,2.24-.22c-.1.39.55.69,1.21,1,4.64.29,10,.39,15.77.72,5.76,0,11.92.31,18.12,0,6.21-.11,12.44-.75,18.37-1.43,3-.37,5.82-.93,8.56-1.44a73.54,73.54,0,0,0,7.78-1.82c8-.33,19.52-3.65,26.38-6.89a199.14,199.14,0,0,0,19.11-6.82c6-2.69,11.92-5.28,17.68-8.48,5.86-3,11.56-6.5,17.59-10.1l9.05-5.93c3.12-2,6.16-4.33,9.42-6.59-.83-.93,1.4-2.4,1.66-4.28-6.24,3.35-6.29,5-11.1,8.48-.18-.48-.72-.61-1.7-.32l-8.45,5.15-7.84,4.54c-4.91,3-9.48,5.36-13.21,7.78-5.3,2.37-8.89,3-11.52,5.52a9,9,0,0,0-1.65.09c-1.16.12-2.36.24-2.54-.33,1.13-1.49,8.31-4.21,8.62-5.66-7.79,3.39-21.4,9-25.3,11.87a5.58,5.58,0,0,1-2-.15,5.39,5.39,0,0,0-2-.15c-1.37.35-3.68,1-6.44,1.83s-5.92,2-9.07,2.83c-6.3,1.78-12.34,3.46-13.86,3.55a101.62,101.62,0,0,1-10.32-.6c-6.87-1.14,1.64-3.55,9.37-5.41,0-.73,0-1.4-1.5-1.53-2.23.6-5.33,1.18-8,1.69s-4.87,1-5.32,1.71c-1.95-.37-4.67-.07-7.79.16s-6.64.74-10.12,1.13c-7,.52-13.82.75-16.78-1.49-7.17.54-14.83-1.29-14.59-3.07-4.5-.9-7.86-1.88-11.46-2.46s-7.38-1.08-12.72-1.49c-2.87-1.44-10.56-3.31-11.36-5-5.12-1-10.12-2.44-13.2-2.51-3.88-1.43-12.09-3.78-19.7-7a84,84,0,0,1-10.46-5,31.81,31.81,0,0,1-4.09-2.57c2.61,7,5.42,14.38,8.37,21.89A190.22,190.22,0,0,0,203.1,521.27Z"/><path class="cls-10" d="M74.89,393.78c-.47.06-.68.92-1.58-.39a26.06,26.06,0,0,0-2.24-5.32c-.51-1-1.07-2-1.69-3s-1.18-2.19-1.81-3.36c-1.26-2.33-2.7-4.84-4.06-7.6s-2.57-5.82-3.75-9.05c-1.21-1.88-1.7-1.54-2.12-1.21s-.54.45-1,0c-1.36-3.69-3.07-7.27-4.59-11.05A109.4,109.4,0,0,1,48,340.87c-1.47,1.21-1.9-5.23-3.26-8.82-.54.23-1.08-.89-1.63-2s-1-2-1.48-2a77.71,77.71,0,0,1-3-15,18.84,18.84,0,0,1,.62-8.53c-1.33-6.3-1.36-5.59-1.44-11.63A32.7,32.7,0,0,1,34.6,286a80.65,80.65,0,0,1-.2-8.85,44.7,44.7,0,0,1,.89-6.92c.4-2.08.88-4,1.37-5.8s1.14-3.6,1.73-5.47c1-16.05-.89-21.5.53-34.16,1.65-2.22,2.21-.49,2.87,1.25.53,1.41,1.12,2.81,2.4,2.11a70.39,70.39,0,0,1,2.62-11.23c-.56-.52-.94-1.42-.59-3.7.86.15,1.64-2.26,2.52-4.36s1.84-3.89,2.64-2.6c.56-3.44,1.21-7.42,2.77-6.32l3-8.61c-1.44-.82.82-7.76,3.23-12.23-.43-1.11-1.15-.09-1.88.93-.56.8-1.13,1.6-1.55,1.38.38-3.81.32-6.73,4.26-14.64,2.67-2.26,2.14,1.35,1.43,4.52.55-1.29,1.09-2.5,1.6-3.58s1.09-2,1.59-2.77c1-1.54,1.83-2.44,2.44-2.4.66-1.37,1.29-2.72,1.92-4s1.37-2.56,2-3.8c1.38-2.46,2.68-4.87,4.09-7.14,2.91-4.48,5.65-8.77,8.8-12.72a216.52,216.52,0,0,1,21.1-23.72c.33-1.79,1.66-4.19,3.91-7.16A85.09,85.09,0,0,1,120,94c.73.51,2.81-.73,5.11-2.45l6.56-5.15c.15.71.89.69,2.54-.46a30.08,30.08,0,0,1,12.95-7.36,46.5,46.5,0,0,0-5.59,5.86c-3.78,3-6.11,4.3-9.23,6.52a29.81,29.81,0,0,1-5.55,5.69l.93,1.1c-1,1.23-2,2.35-3,3.38s-1.92,2.06-2.87,3a40,40,0,0,1-5.55,4.38,23.21,23.21,0,0,1-8.59,4.1c-1.08,1.65,1.21,1.19-1.08,3.63-2.78,3.64-5.48,6.53-7.92,9.36s-4.88,5.36-7.27,8.13c-4.72,5.55-9.87,11.61-15.15,21.62.13.8.75,1.1.12,2.66-2,3.25-2.9,4.9-3.83,6.13s-1.75,2.14-3.29,4.11c-2.27,4-1.62,4.9-1.85,6.6-1.55.18-3.73,6.16-5,10.1-1.11,0-2.57,1.85-4.1,5.69,1.28,1.24-.49,7.32-2.54,11.09a55.24,55.24,0,0,1-1.34,10.12c-.6,3.76-1.67,7.75-2.49,11.91s-1.83,8.41-2.35,12.6c-.31,2.08-.59,4.14-.83,6.14s-.26,3.95-.3,5.8c-.9,4.93-1.7,8.67-2.82,11.07.27,2.35.37,5.49.64,9.07s.27,7.57.57,11.62c.08,2,.16,4.07.24,6.08s.23,4,.34,5.88.13,3.72.16,5.43.14,3.27.13,4.68c-.45.55-.81.1-1.16-.35s-.63-.8-1-.49a51.36,51.36,0,0,0,.86,8.85c.58,3,1.3,6.06,2,9.12a108.3,108.3,0,0,1,3.66,18,75.56,75.56,0,0,1,6.12,13.74c.94,2.62,1.93,5.27,2.73,7.86.41,1.29.79,2.56,1.13,3.79s.75,2.38,1.1,3.48c.42-.26,1.05.49,1.77,1.7.28,1.22-.82.78.69,3.48,1.11.32,2.58,3.55,4.15,6.78s3.13,6.52,4.46,6.77c4.73,10.79,11.17,17.89,17,24.36-1.5-26.9,1.45-51.29,13.17-69.19,22.33-34.12,40.95-50.33,111.24-32.37,51,13,87.69-15.53,87.69-15.53s3,29-25.06,38.39c-23.22,11.66-67.9,7.08-67.9,7.08s60.41,21.77,96.51,13.07,59.88-28.88,93.28-35.67S445,333.19,445,333.19s-43.66,9.86-83.28,32.59C315,392.57,290.32,406.93,242.91,401s-108.74-5.16-85.75,64.31c.24.72.49,1.45.73,2.18,1.1.53,2.23,1.08,3.39,1.68,2.87,1.47,6,2.9,9.09,4.43s6.28,2.78,9.23,4a45.78,45.78,0,0,0,8.26,2.55c2.71,2.08,2.7,1.16,7.39,2.85a39.79,39.79,0,0,0,8.78,3.82,49.4,49.4,0,0,0,7.78,1.25c2.5.28,5,.24,7.74.42s5.55.58,8.87,1.1a6.76,6.76,0,0,1-.23-.88,224.43,224.43,0,0,0,148.19-20.49c-.65.48-1.28.95-1.86,1.42a14,14,0,0,0-3.78,3.58l-11.8,4.84-5.38,2.35c-1.76.75-3.5,1.47-5.21,2.19s-3.37,1.5-5.06,2.16l-5.09,1.95c-1.69.63-3.39,1.29-5.12,1.86s-3.51,1.05-5.31,1.54c-2.54,0,.35-.94-.42-1.69-10,3.48-24.63,7.35-33.19,5.58-3.45.63-5.45,1.38-8.89,1.8a31.72,31.72,0,0,0-8.33-.62c-3.47,0-6.75.05-8.56-1.1-4.38-.26-10.58-.55-14.54-.85s-5.78.24-1.3,2.22a220,220,0,0,0,67.2-2.84,184.13,184.13,0,0,0,30.43-8.81c5.12-1.82,10.13-4.23,15.34-6.58,5.07-2.65,10.34-5.3,15.52-8.59-7.23,3.1-1.25-1-.39-2.67a227,227,0,0,0,22.81-14.25,223.28,223.28,0,0,0,63.68-69.55,64.85,64.85,0,0,1-4.26,8.69,98,98,0,0,1-5.5,8.73c-2,2.85-4,5.86-6.38,8.83s-4.61,6.27-7.3,9.62c-4.32,3.68-11.18,12.22-14,16.19,1.83-1.52,3.61-3.25,5.43-5.1s3.74-3.73,5.59-5.8l5.58-6.47c1.91-2.21,3.62-4.66,5.47-7a227.52,227.52,0,0,0,19.43-31.3c1.15.81.9,3.25-.24,6.58a42.4,42.4,0,0,1-2.34,5.53c-1,1.95-2.22,4-3.49,6.11a64.72,64.72,0,0,1-4.14,6.1c-1.46,2-2.91,3.84-4.29,5.56a75.55,75.55,0,0,1-7.09,7.25c-3.46,4.22-5.9,7.64-8,10.75s-4.14,5.73-6.57,8.43c5.31-5.48,5.89-2.41,11.28-8.36-.18,2.35-7.16,8.44-8.44,11.26a45.29,45.29,0,0,0-6.13,3.7c-4.86,4.7-6.51,8-11.62,11.5-.23.73,2,.31,0,1.87-1.25.79-2.15,1.14-2.41.72-2.71,2.38-7.15,7.09-4.25,6.09a43,43,0,0,1,7.25-6.34c2.69-2.08,5.38-3.78,7.06-4.17-4.68,5.41-10.3,8.77-13.56,13.56,5.42-3.62,5.06-3.76,9.36-7.43,1.66-.8,4.2-2.81,5.34-2.93-5,5.49-12.3,11.1-13.29,14.37L426,460l5.48-4.92c1.86-1.65,3.71-3.34,5.45-5.14,3.54-3.53,7-7,10-10.63,1.5-1.77,3-3.48,4.29-5.14s2.44-3.38,3.5-4.95c.22.2.91-.5,1.23-.52-.18,2-1.68,4.84-2.67,7.37-6.67,6.72-4.73,8.12-8,11,1.2,1.17.13,2.76,3.12,1.44-4.35,4.82-2.1,5.35-2.4,6.57,3.45-3.1-.23-1.95,4.7-6,1.3-.16-.72,1.79.13,1.93a53.33,53.33,0,0,1,7.44-8.35,96.71,96.71,0,0,0,8.49-9.54c.52-.15.25.55-.06,1.25-.44,1-1,1.94.33.64.4-.72,3.1-5.1,3.82-5-.33,1.31.1,1.23.66,1.16a1.11,1.11,0,0,1,1.14.3c-2,3.81-6.86,9.21-10.85,14-4.17,4.67-7.53,8.78-6.52,10.1,6.22-7.05,15.41-15.66,23.5-25.68s15.71-20.79,19.58-30.56c3.59-3.35,7.34-10,10.76-16.77l4.67-10.13c1.34-3.23,2.6-6.13,3.76-8.36.42-2.08,1.24-5,2.31-8.38s2.52-7.32,3.76-11.56c.65-2.12,1.32-4.29,2-6.49s1.16-4.48,1.72-6.72,1.1-4.48,1.52-6.68.72-4.36,1-6.42c-.5-.28-.79-1-.66-2.75a15.27,15.27,0,0,0,1.81-7.53c-1.18.58-.88-4.31-1.23-7.94a285.29,285.29,0,0,0-.09-52.27,319.69,319.69,0,0,0-8.87-50.25c-1-2.51-1.93-3.36-3-7.07a88.48,88.48,0,0,0-4.07-13.94c-2-5-4-10.2-5.62-13.82-2-.6-5.78-8.39-5.3-10.24-1.48-3.46-3.48-3.53-3.54-5.35.26-.14-.19-1.08-.1-1.4,2.21,2.78,5,7.1,6.94,9.41-5.37-13.12-14-24.52-17.2-30.84.19.45.18.71-.1.72-1.66-2.34-3.13-4.61-4.7-6.65l-4.5-5.86c-2.82-3.81-5.78-7.13-8.68-10.6a269.14,269.14,0,0,0-21.7-22.52c.07,1.65-1.95.77-4.91-1s-6.85-4.51-10.73-6.3c-.55-1.1-2.31-2.78-.9-2.94-3.2-2.46-4.11-2.12-5.07-1.78a2.68,2.68,0,0,1-1.7.17,58.47,58.47,0,0,1-7.88-5.2l-7.53-5.79c0-.32.43-.24.84-.17s.77.14.84-.12c-5.65-4-10.9-6.9-15.64-9.82l-7.06-3.89c-2.29-1.29-4.54-2.53-6.84-3.68a41.93,41.93,0,0,1-8.23-3c-3.62-1.42-7.88-3.29-12.26-5.09-4.43-1.63-8.89-3.46-12.9-4.67a73.13,73.13,0,0,0-9.72-2.43,27.88,27.88,0,0,0-5.82-2.91c.75,1.25-2.43.66-5.36.11s-5.65-.83-3.88.48c3.23-1.45,11.66,3.17,13.17,4.53-10.45-2.74-23.42-4.32-36.23-5.15s-25.5-.69-35.89-1.61c2.41-1.25,11.36-1,15-1.73-2.26-.08-2.94-.35-2.5-.94,3.69.7,7.63-2,2.61-2.82a59.9,59.9,0,0,0-7.36-.27c-2.92,0-6.15,0-9.27.21s-6.12.35-8.6.42a36.68,36.68,0,0,1-5.43,0c-.13.55-.75,1-2.44,1.4-5.45.14-11.15,1.34-14.13.33-1.43.66-.9,1.39-4.86,1.93-2.43-.84-7.51-.39-13.69.91-3.08.69-6.44,1.54-9.92,2.41s-7,2.06-10.46,3C189,25.05,184.12,26,180.68,27.08c-12.4,4.43-27.47,12.81-41.57,20.61l-5.87,3.14c-2,1.17-4,2.37-5.94,3.6s-3.8,2.45-5.45,3.71A32.18,32.18,0,0,0,117.76,62c-.37-.16-.32-.8-1.56.07-7.65,7.29-15.71,14-23.72,20.86-3.91,3.54-7.84,7.1-11.5,10.91a101.58,101.58,0,0,0-10.09,12.21c-1.36,1.51-1.41.3-3.69,3.68-2.8,3.81-.41,3.51-3,7.41a63.22,63.22,0,0,0-7.77,10.26c-1.24,2-2.47,4-3.68,6s-2.25,4.2-3.36,6.26l-3.21,6.05c-1,2-2,3.86-2.93,5.6s-1.93,3.32-2.88,4.71a23.71,23.71,0,0,1-2.71,3.61c-1.3,3.41-1.77,2.87-2.95,5.74-.93,2.31.59,1.37-1.2,5.09-5.68,11.15-9.42,22.87-12.48,35s-4.91,24.76-6.51,38.23l-1.15-.12c-.68,4.81.83,2.91.55,6.53A225.49,225.49,0,0,0,14.47,295a269.42,269.42,0,0,0,8.44,43c.73,3.72,1.77,7.91,3,12.37,1.44,4.4,3,9.12,4.87,13.85s3.89,9.56,6.26,14.17l3.39,6.91c1.14,2.27,2.39,4.43,3.54,6.59a285.72,285.72,0,0,0,35.46,51.53,257.88,257.88,0,0,0,19.13,19.77,448,448,0,0,1-6.79-46.45A160.1,160.1,0,0,1,74.89,393.78ZM232.67,36.27c1.3-.38,2.87-.72,4.6-1.05,3.47-.67,7.59-1.29,11.55-1.65,7.88-1,15-1.34,14.6-3.51a14.52,14.52,0,0,0-5,.69,10.12,10.12,0,0,1-3.61.68,18.4,18.4,0,0,1-2-.13c5.17-1.64,14.61-4.09,21.42-2.29a45.13,45.13,0,0,1,10.13,0c3.42.25,6.84.64,10.2,1,9.91.63,21.59.65,29.65,4.15,1.79.39,2.2.09,2.6-.2a1.7,1.7,0,0,1,1.23-.39c8.8,1.78,15.28,5.34,18.88,4.21.75,1.05,6,2.64,10.11,4.06,2.91,1.42.81,2.37,2.46,3.71,10.32,4.22,14.06,4.35,19.78,5.67a43.54,43.54,0,0,0,10.47,6C389.27,58.58,392,61,396.84,64c-1,.28-2.93-.06-4.72-.4-2.32-.45-4.5-.89-4.61,0C382,61.38,376.06,58,371.07,57.32a25.26,25.26,0,0,0-5.81-3.1,36.75,36.75,0,0,0-5.19-1.29c-1.75-.33-3.56-.69-5.68-1.23a48.23,48.23,0,0,1-7.56-2.38c.8-.69-1.21-1.62-1.66-2.41a8.5,8.5,0,0,0-3.89-.12,8.89,8.89,0,0,1-4.48-.24c-3.06-1.37-9.06-3-14.51-4.33-5.51-1-10.46-1.71-11.48-.91a169.84,169.84,0,0,1-21.62-4l.12-1.73c2.74.22,3.37.81,6.94.93-.78-1.07-3-1.18-5.94-1.19A59.58,59.58,0,0,1,280,35.16c-1-.38-1.52-.84-1.13-1.5a47.7,47.7,0,0,1-6,.06c-4.44-.12-9.53-.23-12.77,1.43a12.32,12.32,0,0,0-5.47-.7c-2.38.13-5.22.49-8.18.9s-6,1.08-8.9,1.48a72.79,72.79,0,0,1-7.82.78A11.73,11.73,0,0,1,232.67,36.27Z"/><path class="cls-11" d="M152.42,462.56c-2.42-1.62-3.18-1.44-3.95-1.26a2.69,2.69,0,0,1-1.92-.13c-3.93-1.8-10.16-7.24-12.69-7.81a59.17,59.17,0,0,0-7.41-7.08c-2.51-2-4.92-4-7.6-5.91a105.71,105.71,0,0,1-8.31-6.64,76.9,76.9,0,0,1-9.17-9.38c1,.21-.06-1.37-1.43-3a25.24,25.24,0,0,0-3.17-3.59c-1.09-1.71-.57-2.26-1.08-3.55-1.42-1.67-2.92-3.33-4.46-5q.21,3.78.54,7.62,2.28,2.64,4.62,5.15c8.23,8.92,16.19,16.9,20.42,23,2.61,2.44,4.94,3.37,5.09,4.84-2.62-.95-6.43-4.08-10.18-7.45-3.57-3.54-7.19-7.19-9.44-9.32-1.23,1.19,4.41,7.1-1.29,2.87a50.84,50.84,0,0,0,7,8.74c3,3,6.57,5.94,10.19,8.93,3.81,2.77,7.61,5.68,11.39,8.21s7.24,5.09,10.35,7.22c3.79,2.67,6.09,4.74,9.66,7.1.92.52,1.25.46,1.57.41s.73-.13,2,.64a84.8,84.8,0,0,0,10.38,6.5q-1.54-4.26-3-8.36c-5-3-10.07-6.33-15.59-9.6-2.23-1.3-4.91-2.52-7.79-4.4a52.92,52.92,0,0,1-9.62-7.34c0-.24.07-.33.22-.33a3.38,3.38,0,0,1,1.14.49c.71.38,1.42.77,1.36.15,8.73,5.64,17.66,11.93,27.16,17.17l2.21,1.27c-.6-1.76-1.19-3.48-1.76-5.18-1.62-.77-3.17-1.47-4.6-2C150.52,463.74,152.16,463.34,152.42,462.56Z"/><path class="cls-11" d="M165.34,488.54l-.36-1c-.52-.29-1.11-.64-1.84-1.09A10.91,10.91,0,0,0,165.34,488.54Z"/><path class="cls-11" d="M128.7,485.85c-1.75-.05,1.32,1.7,1.54,2.38,14.31,8.69,21.36,13.73,34.65,17.68,2.68,1.51,5.65,3,8.82,4.52-3-7.51-5.76-14.84-8.37-21.89a10.91,10.91,0,0,1-2.2-2.08c.73.45,1.32.8,1.84,1.09-.49-1.31-1-2.62-1.44-3.92a84.8,84.8,0,0,1-10.38-6.5c-1.24-.77-1.61-.71-2-.64s-.65.11-1.57-.41c-3.57-2.36-5.87-4.43-9.66-7.1-3.11-2.13-6.54-4.73-10.35-7.22s-7.58-5.44-11.39-8.21c-3.62-3-7.22-5.92-10.19-8.93a50.84,50.84,0,0,1-7-8.74c5.7,4.23.06-1.68,1.29-2.87,2.25,2.13,5.87,5.78,9.44,9.32,3.75,3.37,7.56,6.5,10.18,7.45-.15-1.47-2.48-2.4-5.09-4.84-4.23-6.12-12.19-14.1-20.42-23q-2.34-2.51-4.62-5.15a448,448,0,0,0,6.79,46.45,230.53,230.53,0,0,0,25.35,20.45C126.1,485.16,126.45,484.47,128.7,485.85Z"/><path class="cls-11" d="M130.28,454.24c.06.62-.65.23-1.36-.15a3.38,3.38,0,0,0-1.14-.49c-.15,0-.24.09-.22.33a52.92,52.92,0,0,0,9.62,7.34c2.88,1.88,5.56,3.1,7.79,4.4,5.52,3.27,10.59,6.59,15.59,9.6-.31-.87-.61-1.74-.91-2.59l-2.21-1.27C147.94,466.17,139,459.88,130.28,454.24Z"/><path class="cls-11" d="M242.91,401c47.41,5.92,72.12-8.44,118.84-35.23C401.37,343.05,445,333.19,445,333.19s-11.46-25-44.87-18.26-57.19,27-93.28,35.67-96.51-13.07-96.51-13.07,44.68,4.58,67.9-7.08c28-9.35,25.06-38.39,25.06-38.39s-36.71,28.55-87.69,15.53c-70.29-18-88.91-1.75-111.24,32.37-11.72,17.9-14.67,42.29-13.17,69.19,1.54,1.7,3,3.36,4.46,5,.51,1.29,0,1.84,1.08,3.55a25.24,25.24,0,0,1,3.17,3.59c1.37,1.66,2.46,3.24,1.43,3a76.9,76.9,0,0,0,9.17,9.38,105.71,105.71,0,0,0,8.31,6.64c2.68,1.93,5.09,3.9,7.6,5.91a59.17,59.17,0,0,1,7.41,7.08c2.53.57,8.76,6,12.69,7.81a2.69,2.69,0,0,0,1.92.13c.77-.18,1.53-.36,3.95,1.26-.26.78-1.9,1.18.87,2.92,1.43.55,3,1.25,4.6,2-.24-.73-.49-1.46-.73-2.18C134.17,395.85,195.51,395.09,242.91,401Z"/><path class="cls-11" d="M313.39,398.8s37.81-23.89,71.35-39.28,52.77-17.34,62.78-8.26c7.87,7.15,7.47,11.68,7.47,11.68a728,728,0,0,0-83.84,17.2C330.71,391,313.39,398.8,313.39,398.8"/><path class="cls-11" d="M440.38,384.28s-.6-14.45-28.57-10-82,21.93-82,21.93,83.7-11,110.54-11.91"/><g class="cls-12"><rect class="cls-13" x="-741.4" y="-95.3" width="732.58" height="732.62" transform="translate(-319.09 -188.35) rotate(-47.2)"/></g></svg>