<svg id="Layer_1" data-name="Layer 1" xmlns="http://www.w3.org/2000/svg" xmlns:xlink="http://www.w3.org/1999/xlink" viewBox="0 0 111.84 53.66"><defs><style>.cls-1{fill:url(#New_Gradient_Swatch_copy_3);}.cls-2{fill:url(#New_Gradient_Swatch_copy_3-2);}.cls-3{fill:url(#New_Gradient_Swatch_copy_3-3);}.cls-4{fill:url(#New_Gradient_Swatch_copy_3-4);}.cls-5{fill:url(#New_Gradient_Swatch_copy_3-5);}</style><linearGradient id="New_Gradient_Swatch_copy_3" x1="1.16" y1="27.13" x2="110.84" y2="27.13" gradientUnits="userSpaceOnUse"><stop offset="0" stop-color="#cb1461"/><stop offset="0.5" stop-color="#9a2779"/><stop offset="1" stop-color="#5f0249"/></linearGradient><linearGradient id="New_Gradient_Swatch_copy_3-2" x1="107.49" y1="44.95" x2="110.84" y2="44.95" xlink:href="#New_Gradient_Swatch_copy_3"/><linearGradient id="New_Gradient_Swatch_copy_3-3" x1="82.67" y1="44.95" x2="103.58" y2="44.95" xlink:href="#New_Gradient_Swatch_copy_3"/><linearGradient id="New_Gradient_Swatch_copy_3-4" x1="107.49" y1="18.22" x2="110.84" y2="18.22" xlink:href="#New_Gradient_Swatch_copy_3"/><linearGradient id="New_Gradient_Swatch_copy_3-5" x1="82.67" y1="18.22" x2="103.58" y2="18.22" xlink:href="#New_Gradient_Swatch_copy_3"/></defs><title>bizhut_export</title><path class="cls-1" d="M79.42.93V7.74h31.42v3.15H79.42V25.56h26.06V28.7H79.42v5.77h21.14v3.14H79.42V53.33H1.16V.93ZM76.07,50.19V5.5L40.29,28.73,13.91,11.63,15.82,9,40.29,24.91,72.38,4.08H4.51V50.19Z"/><rect class="cls-2" x="107.49" y="43.38" width="3.35" height="3.14"/><rect class="cls-3" x="82.67" y="43.38" width="20.91" height="3.14"/><rect class="cls-4" x="107.49" y="16.65" width="3.35" height="3.14"/><rect class="cls-5" x="82.67" y="16.65" width="20.91" height="3.14"/></svg>